# xmcd
#
# Track frame offsets: 
#        150
#        19557
#        40975
#        58200
#        71622
#        92650
#        117365
#        136432
#        159950
#        177712
#        192805
#        213425
#        237622
#        253217
#        275767
#        297332
#        313892
#        331785
#
# Disc length: 4726 seconds
#
# Revision: 2
# Processed by: cddbd v1.5.2PL0 Copyright (c) Steve Scherf et al.
# Submitted via: ExactAudioCopyFreeDBPlugin 1.0
#
DISCID=1b127412
DTITLE=ちあきなおみ - Chateau Chant 1981
DYEAR=1900
DGENRE=Pop
TTITLE0=黄昏のビギン
TTITLE1=かもめの街
TTITLE2=喝采
TTITLE3=星影の小径
TTITLE4=伝わりますか
TTITLE5=Tokyo挽歌
TTITLE6=秘恋
TTITLE7=男駅・女駅
TTITLE8=イマージュ
TTITLE9=それぞれのテーブル
TTITLE10=霧笛(難船)
TTITLE11=ひとり芝居
TTITLE12=酒ともだち
TTITLE13=酔いどれ船(かもめ)
TTITLE14=ルイ
TTITLE15=女はアクトレス
TTITLE16=冬の道化師
TTITLE17=紅い花
EXTD=
EXTT0=
EXTT1=
EXTT2=
EXTT3=
EXTT4=
EXTT5=
EXTT6=
EXTT7=
EXTT8=
EXTT9=
EXTT10=
EXTT11=
EXTT12=
EXTT13=
EXTT14=
EXTT15=
EXTT16=
EXTT17=
PLAYORDER=
